<svg xmlns="http://www.w3.org/2000/svg"> 

  <symbol id="download" viewBox="0 0 16 20">
    <path d="M8.71 15.71L12.71 11.71C12.8046 11.6158 12.8794 11.5036 12.93 11.38C13.023 11.1352 13.023 10.8648 12.93 10.62C12.8797 10.4962 12.8051 10.3838 12.7107 10.2893C12.6162 10.1949 12.5038 10.1203 12.38 10.07C12.1352 9.977 11.8648 9.977 11.62 10.07C11.4964 10.1206 11.3842 10.1954 11.29 10.29L9 12.59V1C9 0.734784 8.89464 0.48043 8.70711 0.292893C8.51957 0.105357 8.26522 0 8 0C7.73478 0 7.48043 0.105357 7.29289 0.292893C7.10536 0.48043 7 0.734784 7 1V12.59L4.71 10.29C4.61579 10.1954 4.50359 10.1206 4.38 10.07C4.2603 10.0171 4.13087 9.98977 4 9.98977C3.86913 9.98977 3.7397 10.0171 3.62 10.07C3.49623 10.1203 3.3838 10.1949 3.28933 10.2893C3.19487 10.3838 3.12029 10.4962 3.07 10.62C3.0171 10.7397 2.98977 10.8691 2.98977 11C2.98977 11.1309 3.0171 11.2603 3.07 11.38C3.12057 11.5036 3.19537 11.6158 3.29 11.71L7.29 15.71C7.3872 15.7983 7.49882 15.8694 7.62 15.92C7.86346 16.02 8.13654 16.02 8.38 15.92C8.50119 15.8694 8.6128 15.7983 8.71 15.71ZM16 19C16 18.7348 15.8946 18.4804 15.7071 18.2929C15.5196 18.1054 15.2652 18 15 18H1C0.734784 18 0.48043 18.1054 0.292893 18.2929C0.105357 18.4804 0 18.7348 0 19C0 19.2652 0.105357 19.5196 0.292893 19.7071C0.48043 19.8946 0.734784 20 1 20H15C15.2652 20 15.5196 19.8946 15.7071 19.7071C15.8946 19.5196 16 19.2652 16 19Z"/>
  </symbol>
</svg>
